<?xml version="1.0" encoding="UTF-8"?>
<!DOCTYPE svg PUBLIC "-//W3C//DTD SVG 1.1//EN" "http://www.w3.org/Graphics/SVG/1.1/DTD/svg11.dtd">
<svg xmlns="http://www.w3.org/2000/svg" version="1.1" width="512px" height="512px" style="shape-rendering:geometricPrecision; text-rendering:geometricPrecision; image-rendering:optimizeQuality; fill-rule:evenodd; clip-rule:evenodd" xmlns:xlink="http://www.w3.org/1999/xlink">
<g><path style="opacity:0.997" fill="#feca5b" d="M 237.5,-0.5 C 239.833,-0.5 242.167,-0.5 244.5,-0.5C 311.548,7.70621 358.048,43.0395 384,105.5C 402.542,162.184 394.208,214.517 359,262.5C 347.279,275.554 334.946,287.887 322,299.5C 320.107,302.618 318.774,305.951 318,309.5C 317.5,319.828 317.334,330.161 317.5,340.5C 308.167,340.5 298.833,340.5 289.5,340.5C 289.666,330.828 289.5,321.161 289,311.5C 287.009,308.42 284.175,306.754 280.5,306.5C 280.5,297.833 280.5,289.167 280.5,280.5C 303.437,282.499 314.603,272.166 314,249.5C 308.925,235.873 299.091,229.707 284.5,231C 269.02,236.78 262.353,247.947 264.5,264.5C 258.5,264.5 252.5,264.5 246.5,264.5C 248.802,245.157 240.469,233.824 221.5,230.5C 209.301,231.678 201.135,238.011 197,249.5C 196.44,272.18 207.607,282.513 230.5,280.5C 230.5,289.167 230.5,297.833 230.5,306.5C 226.828,306.658 223.995,308.325 222,311.5C 221.5,321.161 221.334,330.828 221.5,340.5C 204.167,340.5 186.833,340.5 169.5,340.5C 169.666,330.828 169.5,321.161 169,311.5C 168.261,307.615 166.927,303.948 165,300.5C 153,288.5 141,276.5 129,264.5C 91.6527,214.747 83.3194,160.414 104,101.5C 129.619,42.7752 174.119,8.77519 237.5,-0.5 Z"/></g>
<g><path style="opacity:1" fill="#ffb85a" d="M 244.5,-0.5 C 254.167,-0.5 263.833,-0.5 273.5,-0.5C 338.066,9.2332 382.899,44.2332 408,104.5C 427.225,162.484 418.558,215.817 382,264.5C 370,276.5 358,288.5 346,300.5C 344.073,303.948 342.739,307.615 342,311.5C 341.5,321.161 341.334,330.828 341.5,340.5C 333.5,340.5 325.5,340.5 317.5,340.5C 317.334,330.161 317.5,319.828 318,309.5C 318.774,305.951 320.107,302.618 322,299.5C 334.946,287.887 347.279,275.554 359,262.5C 394.208,214.517 402.542,162.184 384,105.5C 358.048,43.0395 311.548,7.70621 244.5,-0.5 Z"/></g>
<g><path style="opacity:0.949" fill="#98b3cd" d="M 47.5,33.5 C 59.6992,38.6003 71.3658,44.7669 82.5,52C 88.1937,57.8623 87.527,62.8623 80.5,67C 78.8333,67.6667 77.1667,67.6667 75.5,67C 64.8333,61 54.1667,55 43.5,49C 38.5544,42.0415 39.8877,36.8748 47.5,33.5 Z"/></g>
<g><path style="opacity:1" fill="#99b4cc" d="M 289.5,55.5 C 293.497,59.665 297.33,63.9983 301,68.5C 301.667,70.8333 301.667,73.1667 301,75.5C 298.366,79.9354 295.866,84.4354 293.5,89C 294.347,92.4472 296.014,95.2805 298.5,97.5C 303.167,98.6667 307.833,99.8333 312.5,101C 314.726,102.227 316.226,104.061 317,106.5C 317.167,110.667 317.333,114.833 317.5,119C 317.612,123.944 317.112,128.777 316,133.5C 314.833,134.667 313.667,135.833 312.5,137C 306.906,138.273 301.406,139.773 296,141.5C 295.163,143.838 294.33,146.172 293.5,148.5C 295.76,153.269 298.26,157.936 301,162.5C 301.667,164.833 301.667,167.167 301,169.5C 297.33,174.002 293.497,178.335 289.5,182.5C 285.551,180.069 281.718,180.403 278,183.5C 276.18,189.11 274.514,194.777 273,200.5C 271.786,202.049 270.286,203.215 268.5,204C 259.065,204.945 249.732,204.611 240.5,203C 239.667,202.167 238.833,201.333 238,200.5C 236.499,195.161 234.999,189.828 233.5,184.5C 231.222,182.777 228.722,181.444 226,180.5C 220.769,183.199 215.602,186.032 210.5,189C 208.833,189.667 207.167,189.667 205.5,189C 198.333,183.167 191.833,176.667 186,169.5C 185.333,167.167 185.333,164.833 186,162.5C 188.333,158.5 190.667,154.5 193,150.5C 193.497,147.153 192.663,144.153 190.5,141.5C 185.172,140.001 179.839,138.501 174.5,137C 173.667,136.167 172.833,135.333 172,134.5C 170.882,129.274 170.382,123.941 170.5,118.5C 170.667,113.833 170.833,109.167 171,104.5C 172.167,103.333 173.333,102.167 174.5,101C 179.833,99.6667 185.167,98.3333 190.5,97C 192.397,94.0614 193.23,90.8947 193,87.5C 190.667,83.5 188.333,79.5 186,75.5C 185.21,72.366 185.543,69.366 187,66.5C 192.864,60.301 199.031,54.4677 205.5,49C 207.167,48.3333 208.833,48.3333 210.5,49C 215.602,51.9675 220.769,54.8008 226,57.5C 228.005,56.2173 230.172,55.2173 232.5,54.5C 234.153,49.5572 235.653,44.5572 237,39.5C 237.785,37.714 238.951,36.214 240.5,35C 249.732,33.3886 259.065,33.0553 268.5,34C 271,35.1667 272.833,37 274,39.5C 275.347,44.5572 276.847,49.5572 278.5,54.5C 282.142,57.31 285.808,57.6433 289.5,55.5 Z"/></g>
<g><path style="opacity:0.944" fill="#98b3cd" d="M 462.5,33.5 C 471.036,36.3599 472.702,41.5266 467.5,49C 456.833,55 446.167,61 435.5,67C 429.173,68.0025 425.507,65.3358 424.5,59C 424.795,56.0766 426.129,53.7432 428.5,52C 439.809,45.5171 451.143,39.3504 462.5,33.5 Z"/></g>
<g><path style="opacity:1" fill="#80a4c6" d="M 289.5,182.5 C 293.497,178.335 297.33,174.002 301,169.5C 301.667,167.167 301.667,164.833 301,162.5C 298.26,157.936 295.76,153.269 293.5,148.5C 294.33,146.172 295.163,143.838 296,141.5C 301.406,139.773 306.906,138.273 312.5,137C 313.667,135.833 314.833,134.667 316,133.5C 317.112,128.777 317.612,123.944 317.5,119C 317.333,114.833 317.167,110.667 317,106.5C 316.226,104.061 314.726,102.227 312.5,101C 307.833,99.8333 303.167,98.6667 298.5,97.5C 296.014,95.2805 294.347,92.4472 293.5,89C 295.866,84.4354 298.366,79.9354 301,75.5C 301.667,73.1667 301.667,70.8333 301,68.5C 297.33,63.9983 293.497,59.665 289.5,55.5C 293.991,51.1565 299.324,48.9898 305.5,49C 311.969,54.4677 318.136,60.301 324,66.5C 325.457,69.366 325.79,72.366 325,75.5C 322.667,79.5 320.333,83.5 318,87.5C 317.627,90.7764 318.46,93.7764 320.5,96.5C 325.828,97.9988 331.161,99.4988 336.5,101C 337.667,102.167 338.833,103.333 340,104.5C 341.109,109.056 341.609,113.722 341.5,118.5C 341.581,123.582 341.081,128.582 340,133.5C 338.833,134.667 337.667,135.833 336.5,137C 331.161,138.501 325.828,140.001 320.5,141.5C 318.46,144.224 317.627,147.224 318,150.5C 320.333,154.5 322.667,158.5 325,162.5C 325.79,165.634 325.457,168.634 324,171.5C 318.136,177.699 311.969,183.532 305.5,189C 299.324,189.01 293.991,186.844 289.5,182.5 Z"/></g>
<g><path style="opacity:1" fill="#fdca5c" d="M 251.5,101.5 C 268.025,102.178 274.525,110.512 271,126.5C 264.418,135.777 255.918,137.944 245.5,133C 234.583,119.969 236.583,109.469 251.5,101.5 Z"/></g>
<g><path style="opacity:0.952" fill="#99b4cc" d="M 13.5,153.5 C 27.1707,153.333 40.8374,153.5 54.5,154C 58.2765,156.955 59.4432,160.788 58,165.5C 57.5,167.333 56.3333,168.5 54.5,169C 40.5,169.667 26.5,169.667 12.5,169C 7.03444,163.434 7.36777,158.267 13.5,153.5 Z"/></g>
<g><path style="opacity:0.953" fill="#99b4cc" d="M 456.5,153.5 C 470.171,153.333 483.837,153.5 497.5,154C 502.069,156.541 503.569,160.375 502,165.5C 500.833,166.667 499.667,167.833 498.5,169C 484.5,169.667 470.5,169.667 456.5,169C 453.484,167.471 452.151,164.971 452.5,161.5C 452.667,160.167 452.833,158.833 453,157.5C 454.376,156.295 455.542,154.962 456.5,153.5 Z"/></g>
<g><path style="opacity:1" fill="#d4e1e7" d="M 280.5,306.5 C 275.167,306.5 269.833,306.5 264.5,306.5C 264.5,297.833 264.5,289.167 264.5,280.5C 258.5,280.5 252.5,280.5 246.5,280.5C 246.5,289.167 246.5,297.833 246.5,306.5C 241.167,306.5 235.833,306.5 230.5,306.5C 230.5,297.833 230.5,289.167 230.5,280.5C 207.607,282.513 196.44,272.18 197,249.5C 201.135,238.011 209.301,231.678 221.5,230.5C 240.469,233.824 248.802,245.157 246.5,264.5C 252.5,264.5 258.5,264.5 264.5,264.5C 262.353,247.947 269.02,236.78 284.5,231C 299.091,229.707 308.925,235.873 314,249.5C 314.603,272.166 303.437,282.499 280.5,280.5C 280.5,289.167 280.5,297.833 280.5,306.5 Z"/></g>
<g><path style="opacity:1" fill="#fecb5d" d="M 217.5,246.5 C 222.901,245.342 227.067,247.009 230,251.5C 230.499,255.821 230.666,260.154 230.5,264.5C 226.154,264.666 221.821,264.499 217.5,264C 212.845,261.103 211.345,256.937 213,251.5C 214.025,249.313 215.525,247.646 217.5,246.5 Z"/></g>
<g><path style="opacity:1" fill="#fecb5d" d="M 285.5,246.5 C 295.659,245.158 299.826,249.491 298,259.5C 297.167,261.667 295.667,263.167 293.5,264C 289.179,264.499 284.846,264.666 280.5,264.5C 280.334,260.154 280.501,255.821 281,251.5C 282.366,249.638 283.866,247.972 285.5,246.5 Z"/></g>
<g><path style="opacity:0.945" fill="#99b3cd" d="M 76.5,255.5 C 83.4649,255.961 86.6316,259.628 86,266.5C 84.8783,268.624 83.3783,270.457 81.5,272C 71.5,277.667 61.5,283.333 51.5,289C 41.2421,289.167 38.2421,284.5 42.5,275C 53.7651,268.206 65.0984,261.706 76.5,255.5 Z"/></g>
<g><path style="opacity:0.942" fill="#99b3cd" d="M 430.5,255.5 C 433.688,255.618 436.688,256.451 439.5,258C 449.002,263.919 458.669,269.586 468.5,275C 472.758,284.5 469.758,289.167 459.5,289C 449.5,283.333 439.5,277.667 429.5,272C 422.671,266.003 423.004,260.503 430.5,255.5 Z"/></g>
<g><path style="opacity:1" fill="#fecb5a" d="M 264.5,306.5 C 258.5,306.5 252.5,306.5 246.5,306.5C 246.5,297.833 246.5,289.167 246.5,280.5C 252.5,280.5 258.5,280.5 264.5,280.5C 264.5,289.167 264.5,297.833 264.5,306.5 Z"/></g>
<g><path style="opacity:1" fill="#99b4cc" d="M 230.5,306.5 C 235.833,306.5 241.167,306.5 246.5,306.5C 252.5,306.5 258.5,306.5 264.5,306.5C 269.833,306.5 275.167,306.5 280.5,306.5C 284.175,306.754 287.009,308.42 289,311.5C 289.5,321.161 289.666,330.828 289.5,340.5C 266.833,340.5 244.167,340.5 221.5,340.5C 221.334,330.828 221.5,321.161 222,311.5C 223.995,308.325 226.828,306.658 230.5,306.5 Z"/></g>
<g><path style="opacity:0.997" fill="#d2e1ea" d="M 169.5,340.5 C 186.833,340.5 204.167,340.5 221.5,340.5C 244.167,340.5 266.833,340.5 289.5,340.5C 298.833,340.5 308.167,340.5 317.5,340.5C 325.5,340.5 333.5,340.5 341.5,340.5C 335.347,341.328 329.013,341.828 322.5,342C 335.349,348.227 337.849,357.394 330,369.5C 327.742,371.43 325.242,372.93 322.5,374C 271.332,374.167 220.332,374.667 169.5,375.5C 154.201,372.239 149.367,363.239 155,348.5C 158.485,343.342 163.318,340.675 169.5,340.5 Z"/></g>
<g><path style="opacity:1" fill="#b1c5d8" d="M 341.5,340.5 C 357.533,344.234 362.033,353.567 355,368.5C 351.66,373.087 347.16,375.42 341.5,375.5C 333.5,375.5 325.5,375.5 317.5,375.5C 268.167,375.5 218.833,375.5 169.5,375.5C 220.332,374.667 271.332,374.167 322.5,374C 325.242,372.93 327.742,371.43 330,369.5C 337.849,357.394 335.349,348.227 322.5,342C 329.013,341.828 335.347,341.328 341.5,340.5 Z"/></g>
<g><path style="opacity:0.995" fill="#99b4cd" d="M 169.5,375.5 C 218.833,375.5 268.167,375.5 317.5,375.5C 317.5,384.167 317.5,392.833 317.5,401.5C 267.833,401.5 218.167,401.5 168.5,401.5C 169.47,392.918 169.803,384.251 169.5,375.5 Z"/></g>
<g><path style="opacity:1" fill="#7fa4c7" d="M 317.5,375.5 C 325.5,375.5 333.5,375.5 341.5,375.5C 341.197,384.251 341.53,392.918 342.5,401.5C 334.167,401.5 325.833,401.5 317.5,401.5C 317.5,392.833 317.5,384.167 317.5,375.5 Z"/></g>
<g><path style="opacity:0.996" fill="#d3e1eb" d="M 168.5,401.5 C 218.167,401.5 267.833,401.5 317.5,401.5C 325.833,401.5 334.167,401.5 342.5,401.5C 346.688,402.19 349.022,404.69 349.5,409C 348.723,413.61 346.057,416.443 341.5,417.5C 333.684,416.508 325.684,416.174 317.5,416.5C 267.997,416.168 218.664,416.501 169.5,417.5C 162.733,415.393 160.566,411.06 163,404.5C 164.264,402.393 166.097,401.393 168.5,401.5 Z"/></g>
<g><path style="opacity:0.995" fill="#99b4cd" d="M 317.5,416.5 C 317.5,422.833 317.5,429.167 317.5,435.5C 268.167,435.5 218.833,435.5 169.5,435.5C 169.5,429.5 169.5,423.5 169.5,417.5C 218.664,416.501 267.997,416.168 317.5,416.5 Z"/></g>
<g><path style="opacity:1" fill="#80a4c7" d="M 317.5,416.5 C 325.684,416.174 333.684,416.508 341.5,417.5C 341.5,423.5 341.5,429.5 341.5,435.5C 333.5,435.5 325.5,435.5 317.5,435.5C 317.5,429.167 317.5,422.833 317.5,416.5 Z"/></g>
<g><path style="opacity:0.995" fill="#d3e2eb" d="M 169.5,435.5 C 218.833,435.5 268.167,435.5 317.5,435.5C 325.5,435.5 333.5,435.5 341.5,435.5C 348.356,436.882 350.523,440.882 348,447.5C 346.362,449.734 344.195,451.067 341.5,451.5C 284.167,450.167 226.833,450.167 169.5,451.5C 162.662,449.48 160.495,445.146 163,438.5C 164.734,436.549 166.901,435.549 169.5,435.5 Z"/></g>
<g><path style="opacity:0.996" fill="#99b4cd" d="M 341.5,451.5 C 333.5,451.5 325.5,451.5 317.5,451.5C 316.5,464.154 310.166,472.82 298.5,477.5C 293.167,477.5 287.833,477.5 282.5,477.5C 256.167,477.5 229.833,477.5 203.5,477.5C 183.158,480.351 171.825,471.685 169.5,451.5C 226.833,450.167 284.167,450.167 341.5,451.5 Z"/></g>
<g><path style="opacity:1" fill="#7fa4c7" d="M 341.5,451.5 C 339.175,471.685 327.842,480.351 307.5,477.5C 304.5,477.5 301.5,477.5 298.5,477.5C 310.166,472.82 316.5,464.154 317.5,451.5C 325.5,451.5 333.5,451.5 341.5,451.5 Z"/></g>
<g><path style="opacity:0.991" fill="#585965" d="M 203.5,477.5 C 229.833,477.5 256.167,477.5 282.5,477.5C 282.103,496.336 272.77,507.669 254.5,511.5C 246.167,511.5 237.833,511.5 229.5,511.5C 212.976,506.295 204.309,494.962 203.5,477.5 Z"/></g>
<g><path style="opacity:1" fill="#50515c" d="M 282.5,477.5 C 287.833,477.5 293.167,477.5 298.5,477.5C 301.5,477.5 304.5,477.5 307.5,477.5C 306.691,494.962 298.024,506.295 281.5,511.5C 272.5,511.5 263.5,511.5 254.5,511.5C 272.77,507.669 282.103,496.336 282.5,477.5 Z"/></g>
</svg>
